<mxfile host="app.diagrams.net" modified="2022-07-12T19:36:08.423Z" agent="5.0 (Macintosh; Intel Mac OS X 10_15_7) AppleWebKit/537.36 (KHTML, like Gecko) Chrome/103.0.0.0 Safari/537.36" etag="lapLAvX9TAriEKjbR0tH" version="20.0.4" type="github">
  <diagram id="9aAa9uNSV6-onbtvZzwg" name="Page-1">
    <mxGraphModel dx="1018" dy="659" grid="1" gridSize="10" guides="1" tooltips="1" connect="1" arrows="1" fold="1" page="1" pageScale="1" pageWidth="850" pageHeight="1100" math="0" shadow="0">
      <root>
        <mxCell id="0" />
        <mxCell id="1" parent="0" />
        <mxCell id="7CR4fx2s5aApoi6Y75Mm-4" value="" style="edgeStyle=orthogonalEdgeStyle;rounded=0;orthogonalLoop=1;jettySize=auto;html=1;fontSize=16;strokeWidth=2;" edge="1" parent="1" source="7CR4fx2s5aApoi6Y75Mm-1" target="7CR4fx2s5aApoi6Y75Mm-2">
          <mxGeometry relative="1" as="geometry" />
        </mxCell>
        <mxCell id="7CR4fx2s5aApoi6Y75Mm-1" value="&lt;font style=&quot;font-size: 16px;&quot;&gt;PoS - The Merge&lt;/font&gt;" style="rounded=1;whiteSpace=wrap;html=1;fillColor=#d5e8d4;strokeColor=#82b366;" vertex="1" parent="1">
          <mxGeometry x="100" y="250" width="150" height="80" as="geometry" />
        </mxCell>
        <mxCell id="7CR4fx2s5aApoi6Y75Mm-5" value="" style="edgeStyle=orthogonalEdgeStyle;rounded=0;orthogonalLoop=1;jettySize=auto;html=1;fontSize=16;strokeWidth=2;" edge="1" parent="1" source="7CR4fx2s5aApoi6Y75Mm-2" target="7CR4fx2s5aApoi6Y75Mm-3">
          <mxGeometry relative="1" as="geometry" />
        </mxCell>
        <mxCell id="7CR4fx2s5aApoi6Y75Mm-2" value="&lt;span style=&quot;font-size: 16px;&quot;&gt;Data Sharding&lt;/span&gt;" style="rounded=1;whiteSpace=wrap;html=1;fillColor=#dae8fc;strokeColor=#6c8ebf;" vertex="1" parent="1">
          <mxGeometry x="330" y="250" width="150" height="80" as="geometry" />
        </mxCell>
        <mxCell id="7CR4fx2s5aApoi6Y75Mm-3" value="&lt;font style=&quot;font-size: 16px;&quot;&gt;Execution Sharding&lt;/font&gt;" style="rounded=1;whiteSpace=wrap;html=1;fillColor=#f8cecc;strokeColor=#b85450;" vertex="1" parent="1">
          <mxGeometry x="570" y="250" width="150" height="80" as="geometry" />
        </mxCell>
        <mxCell id="7CR4fx2s5aApoi6Y75Mm-6" value="Consensus Mechanism" style="text;html=1;strokeColor=none;fillColor=none;align=center;verticalAlign=middle;whiteSpace=wrap;rounded=0;fontSize=16;" vertex="1" parent="1">
          <mxGeometry x="85" y="330" width="180" height="40" as="geometry" />
        </mxCell>
        <mxCell id="7CR4fx2s5aApoi6Y75Mm-7" value="Data Storage&lt;br&gt;Data Availability" style="text;html=1;strokeColor=none;fillColor=none;align=center;verticalAlign=middle;whiteSpace=wrap;rounded=0;fontSize=16;" vertex="1" parent="1">
          <mxGeometry x="315" y="330" width="180" height="60" as="geometry" />
        </mxCell>
        <mxCell id="7CR4fx2s5aApoi6Y75Mm-8" value="Code Execution" style="text;html=1;strokeColor=none;fillColor=none;align=center;verticalAlign=middle;whiteSpace=wrap;rounded=0;fontSize=16;" vertex="1" parent="1">
          <mxGeometry x="555" y="330" width="180" height="40" as="geometry" />
        </mxCell>
      </root>
    </mxGraphModel>
  </diagram>
</mxfile>
